<?xml version="1.0" encoding="UTF-8" standalone="no"?>
<!-- Created with Inkscape (http://www.inkscape.org/) -->

<svg
   xmlns:dc="http://purl.org/dc/elements/1.1/"
   xmlns:cc="http://creativecommons.org/ns#"
   xmlns:rdf="http://www.w3.org/1999/02/22-rdf-syntax-ns#"
   xmlns:svg="http://www.w3.org/2000/svg"
   xmlns="http://www.w3.org/2000/svg"
   xmlns:sodipodi="http://sodipodi.sourceforge.net/DTD/sodipodi-0.dtd"
   xmlns:inkscape="http://www.inkscape.org/namespaces/inkscape"
   width="100"
   height="86.601997"
   viewBox="0 0 26.458332 22.913446"
   version="1.1"
   id="svg10423"
   inkscape:version="0.92.3 (unknown)"
   sodipodi:docname="textura_web.svg">
  <defs
     id="defs10417">
    <clipPath
       clipPathUnits="userSpaceOnUse"
       id="clipPath10978">
      <rect
         y="315.72638"
         x="1246.98"
         height="96.435333"
         width="111.35451"
         id="rect10980"
         style="stroke:none;stroke-width:0.74060303" />
    </clipPath>
    <clipPath
       clipPathUnits="userSpaceOnUse"
       id="clipPath1422">
      <rect
         y="315.72638"
         x="1340.116"
         height="96.435333"
         width="111.35451"
         id="rect1424"
         style="stroke:none;stroke-width:0.74060303" />
    </clipPath>
  </defs>
  <sodipodi:namedview
     id="base"
     pagecolor="#ffffff"
     bordercolor="#666666"
     borderopacity="1.0"
     inkscape:pageopacity="0.0"
     inkscape:pageshadow="2"
     inkscape:zoom="0.35"
     inkscape:cx="1160.8635"
     inkscape:cy="650.72178"
     inkscape:document-units="px"
     inkscape:current-layer="layer1"
     showgrid="false"
     units="px"
     inkscape:window-width="1920"
     inkscape:window-height="1017"
     inkscape:window-x="0"
     inkscape:window-y="27"
     inkscape:window-maximized="1" />
  <metadata
     id="metadata10420">
    <rdf:RDF>
      <cc:Work
         rdf:about="">
        <dc:format>image/svg+xml</dc:format>
        <dc:type
           rdf:resource="http://purl.org/dc/dcmitype/StillImage" />
        <dc:title></dc:title>
      </cc:Work>
    </rdf:RDF>
  </metadata>
  <g
     inkscape:label="Camada 1"
     inkscape:groupmode="layer"
     id="layer1"
     transform="translate(0,-274.08655)">
    <path
       style="color:#000000;font-style:normal;font-variant:normal;font-weight:normal;font-stretch:normal;font-size:medium;line-height:normal;font-family:sans-serif;font-variant-ligatures:normal;font-variant-position:normal;font-variant-caps:normal;font-variant-numeric:normal;font-variant-alternates:normal;font-feature-settings:normal;text-indent:0;text-align:start;text-decoration:none;text-decoration-line:none;text-decoration-style:solid;text-decoration-color:#000000;letter-spacing:normal;word-spacing:normal;text-transform:none;writing-mode:lr-tb;direction:ltr;text-orientation:mixed;dominant-baseline:auto;baseline-shift:baseline;text-anchor:start;white-space:normal;shape-padding:0;clip-rule:nonzero;display:inline;overflow:visible;visibility:visible;opacity:1;isolation:auto;mix-blend-mode:normal;color-interpolation:sRGB;color-interpolation-filters:linearRGB;solid-color:#000000;solid-opacity:1;vector-effect:none;fill:#f2f2f2;fill-opacity:1;fill-rule:nonzero;stroke:none;stroke-width:0.99999994;stroke-linecap:butt;stroke-linejoin:miter;stroke-miterlimit:4;stroke-dasharray:none;stroke-dashoffset:0;stroke-opacity:1;color-rendering:auto;image-rendering:auto;shape-rendering:auto;text-rendering:auto;enable-background:accumulate"
       d="m 1321.8164,176.00586 -0.5019,0.86328 129.1582,74.56836 -12.92,7.45898 -115.7363,-66.82031 -0.5019,0.86524 115.2402,66.53125 -12.9199,7.45898 -101.8184,-58.78516 -0.5019,0.8711 101.3164,58.49414 -12.92,7.45898 -87.8945,-50.74609 -0.5019,0.86328 87.3984,50.45899 -12.9199,7.45898 -73.9766,-42.71094 -0.5019,0.86328 73.4804,42.42383 -12.9199,7.45899 -60.0586,-34.67579 -0.5019,0.86329 59.5644,34.38867 -12.9199,7.45898 -46.1426,-26.64062 -0.5019,0.87109 45.6406,26.34961 -12.9199,7.45898 -32.2188,-18.60156 -0.5019,0.86328 31.7226,18.31446 -12.4199,7.16992 v -2.57031 h -1.0039 v 2.56836 l -17.7969,-10.2754 -0.5019,0.86329 17.8046,10.27929 -12.4238,7.17188 v -10.60742 h -0.9961 v 10.60546 l -3.8828,-2.24218 -0.5019,0.87109 3.8808,2.24023 -3.8808,2.24024 0.5019,0.86328 3.8828,-2.24219 v 14.34766 l -3.8828,-2.24219 -0.5019,0.86328 3.8808,2.24024 -3.8808,2.24023 0.5019,0.86524 3.8828,-2.24024 v 14.34375 l -3.8828,-2.24219 -0.5019,0.86329 3.8808,2.24023 -3.8808,2.24023 0.5019,0.8711 3.8828,-2.24219 v 14.33984 l -3.8828,-2.24218 -0.5019,0.86328 3.8867,2.24414 -3.8867,2.24414 0.5019,0.86328 3.8828,-2.24219 v 14.33985 l -3.8828,-2.24219 -0.5019,0.87109 3.8808,2.24024 -3.8808,2.24023 0.5019,0.86328 3.8828,-2.24218 v 14.34765 l -3.8828,-2.24219 -0.5019,0.86329 3.8808,2.24023 -3.8808,2.24023 0.5019,0.86329 3.8828,-2.24219 v 14.34765 l -3.8828,-2.24218 -0.5019,0.86328 3.8808,2.24023 -3.8808,2.24024 0.5019,0.87109 3.8828,-2.24219 v 14.33985 l -3.8828,-2.24219 -0.5019,0.86328 3.8867,2.24414 -3.8867,2.24414 0.5019,0.86328 3.8828,-2.24218 v 14.33984 l -3.8828,-2.24219 -0.5019,0.8711 3.8808,2.24023 -3.8808,2.24023 0.5019,0.86329 3.8828,-2.24219 v 14.34765 l -3.8828,-2.24218 -0.5019,0.86328 3.8808,2.24023 -3.8808,2.24024 0.5019,0.87109 3.8828,-2.24219 v 14.33985 l -3.8828,-2.24219 -0.5019,0.86328 3.8867,2.24414 -3.8867,2.24414 0.5019,0.86328 3.8828,-2.24218 v 14.33984 l -3.8828,-2.24219 -0.5019,0.8711 3.8808,2.24023 -3.8808,2.24023 0.5019,0.86329 3.8828,-2.24219 v 14.33984 l -3.8828,-2.24219 -0.5019,0.8711 3.8808,2.24023 -3.8808,2.24024 0.5019,0.86328 3.8828,-2.24219 v 14.34766 l -3.8828,-2.24219 -0.5019,0.86328 3.8808,2.24023 -3.8808,2.24024 0.5019,0.87109 3.8828,-2.24218 v 14.91796 l -4.3847,2.53125 0.5019,0.86329 3.8828,-2.24219 v 14.91797 l -4.3847,2.53125 0.5019,0.86328 3.8828,-2.24219 v 14.91797 l -4.3847,2.53125 0.5019,0.86328 3.8828,-2.24219 v 14.91797 l -4.3847,2.53125 0.5019,0.8711 3.8828,-2.24219 v 14.42969 h 0.8457 l -5.2304,3.01953 0.5019,0.86328 17.7969,-10.27539 v 6.39258 h 1.0039 v -6.97266 l 12.918,-7.45898 v 14.43164 h 0.8437 l -33.0644,19.08984 0.5019,0.86328 45.6426,-26.35156 v 6.39844 h 0.9961 v -6.97461 l 12.9179,-7.45703 v 14.43164 h 0.8418 l -60.9003,35.16015 0.5019,0.8711 73.4785,-42.42383 v 6.39258 h 0.9961 v -6.9668 l 12.9199,-7.45899 v 14.42579 h 0.8399 l -88.7363,51.23046 0.5019,0.8711 101.3164,-58.49414 v 6.39258 h 0.9961 v -6.96875 l 12.9258,-7.46289 v 14.43164 h 0.8437 l -116.5839,67.30859 0.5019,0.86328 129.1524,-74.56836 v 6.39649 h 1.0039 v -6.39454 l 129.1543,74.56641 0.4941,-0.86328 -116.582,-67.30859 h 0.8496 v -14.43164 l 12.9179,7.45898 v 6.97266 h 1.0039 v -6.39454 l 101.3165,58.4961 0.4941,-0.8711 -88.7363,-51.23046 h 0.8476 v -14.42579 l 12.918,7.45899 v 6.9668 h 0.998 v -6.39063 l 73.4786,42.42188 0.4941,-0.8711 -60.9004,-35.16015 h 0.8496 v -14.43164 l 12.918,7.45898 v 6.97266 h 0.9961 v -6.39844 l 45.6426,26.35156 0.4941,-0.86328 -33.0625,-19.08984 h 0.8476 v -14.43164 l 12.92,7.45898 v 6.97266 h 1.0039 v -6.39258 l 17.7969,10.27539 0.4941,-0.86328 -5.2305,-3.01953 h 0.8535 v -14.42969 l 3.8829,2.24219 0.4941,-0.8711 -4.377,-2.52734 V 581.7832 l 3.8829,2.24219 0.4941,-0.86328 -4.377,-2.52734 v -14.92188 l 3.8829,2.24219 0.4941,-0.86328 -4.377,-2.52735 v -14.92187 l 3.8829,2.24219 0.4941,-0.86329 -4.377,-2.52734 v -14.92187 l 3.8829,2.24218 0.4941,-0.87109 -3.8809,-2.24024 3.8809,-2.24023 -0.4941,-0.86328 -3.8829,2.24219 v -14.34766 l 3.8829,2.24219 0.4941,-0.86328 -3.8809,-2.24024 3.8809,-2.24023 -0.4941,-0.8711 -3.8829,2.24219 v -14.33984 l 3.8829,2.24219 0.4941,-0.86329 -3.8809,-2.24023 3.8809,-2.24023 -0.4941,-0.8711 -3.8829,2.24219 v -14.33984 l 3.8829,2.24218 0.4941,-0.86328 -3.8867,-2.24414 3.8867,-2.24414 -0.4941,-0.86328 -3.8829,2.24219 V 469.2832 l 3.8829,2.24219 0.4941,-0.87109 -3.8809,-2.24024 3.8809,-2.24023 -0.4941,-0.86328 -3.8829,2.24218 v -14.34765 l 3.8829,2.24219 0.4941,-0.86329 -3.8809,-2.24023 3.8809,-2.24023 -0.4941,-0.8711 -3.8829,2.24219 v -14.33984 l 3.8829,2.24218 0.4941,-0.86328 -3.8867,-2.24414 3.8867,-2.24414 -0.4941,-0.86328 -3.8829,2.24219 v -14.33985 l 3.8829,2.24219 0.4941,-0.87109 -3.8809,-2.24024 3.8809,-2.24023 -0.4941,-0.86328 -3.8829,2.24218 v -14.34765 l 3.8829,2.24219 0.4941,-0.86329 -3.8809,-2.24023 3.8809,-2.24023 -0.4941,-0.86329 -3.8829,2.24219 v -14.34765 l 3.8829,2.24218 0.4941,-0.86328 -3.8809,-2.24023 3.8809,-2.24024 -0.4941,-0.87109 -3.8829,2.24219 V 372.8457 l 3.8829,2.24219 0.4941,-0.86328 -3.8867,-2.24414 3.8867,-2.24414 -0.4941,-0.86328 -3.8829,2.24218 v -14.33984 l 3.8829,2.24219 0.4941,-0.8711 -3.8809,-2.24023 3.8809,-2.24023 -0.4941,-0.86329 -3.8829,2.24219 v -14.34375 l 3.8829,2.24024 0.4941,-0.86524 -3.8809,-2.24023 3.8809,-2.24024 -0.4941,-0.86328 -3.8829,2.24219 v -14.34766 l 3.8829,2.24219 0.4941,-0.86328 -3.8809,-2.24024 3.8809,-2.24023 -0.4941,-0.87109 -3.8829,2.24218 v -10.60546 h -0.9961 v 10.61328 l -12.4316,-7.17774 17.8047,-10.27929 -0.4941,-0.86329 -17.7969,10.2754 v -2.56836 h -1.0039 v 2.57421 l -12.4258,-7.17382 31.7207,-18.31446 -0.4941,-0.86328 -32.2208,18.60352 -12.9238,-7.46094 45.6387,-26.34961 -0.4941,-0.87109 -46.1465,26.64257 -12.9219,-7.46093 59.5625,-34.38867 -0.4941,-0.86329 -60.0625,34.67774 -12.9219,-7.46094 73.4785,-42.42383 -0.4941,-0.86328 -73.9805,42.71289 -12.9219,-7.46093 87.3965,-50.45899 -0.4941,-0.86328 -87.8985,50.74805 -12.9219,-7.46094 101.3145,-58.49414 -0.4941,-0.8711 -101.8243,58.78516 -12.9179,-7.45898 115.2363,-66.53125 -0.4941,-0.86524 -115.7403,66.82031 -12.9199,-7.45898 129.1543,-74.56836 -0.4941,-0.86328 -129.6582,74.85547 z m 129.6524,76.00781 12.9218,7.45899 -12.9199,7.45898 -12.9219,-7.45898 z m -13.918,8.03516 12.9199,7.45898 -12.9199,7.45899 -12.918,-7.45899 z m 27.8379,0 12.9179,7.45898 -12.9199,7.45899 -12.9179,-7.45899 z m -13.918,8.03711 12.918,7.45703 -12.9199,7.45898 -12.9161,-7.45703 z m -27.8418,0.002 12.918,7.45899 -12.9199,7.45898 -12.918,-7.45898 z m 55.6816,0 12.9219,7.45899 -12.9219,7.46093 -12.9199,-7.46093 z m 13.918,8.0332 12.9219,7.46094 -12.9219,7.46094 -12.9219,-7.46094 z m -83.5176,0.002 12.92,7.45898 -12.92,7.45899 -12.9199,-7.45899 z m 27.8379,0 12.916,7.45898 -12.9199,7.45899 -12.9179,-7.45704 z m 27.8438,0 12.9199,7.45898 -12.9199,7.45899 -12.9199,-7.45899 z m 41.7539,8.0332 12.9219,7.46094 -12.9219,7.46093 -12.9219,-7.46093 z m -111.3535,0.002 12.9199,7.45899 -12.9199,7.45898 -12.92,-7.45898 z m 27.8379,0 12.9179,7.45899 -12.9199,7.45898 -12.9199,-7.45703 z m 55.6777,0 12.9219,7.45899 -12.92,7.45898 -12.9199,-7.45898 z m -27.8379,0.004 12.918,7.45898 -12.9199,7.45899 -12.918,-7.45899 z m 69.5938,8.0293 12.9199,7.46093 -12.9219,7.46094 -12.9199,-7.46094 z m -139.1875,0.002 12.9179,7.45898 -12.9199,7.45899 -12.918,-7.45899 z m 27.8359,0 12.918,7.45898 -12.92,7.45899 -12.9179,-7.45899 z m 83.5137,0 12.9218,7.45898 -12.9199,7.45899 -12.9219,-7.45899 z m -27.8399,0.002 12.9199,7.46094 -12.9199,7.45898 -12.9219,-7.45898 z m -27.834,0.002 12.92,7.45898 -12.92,7.45898 -12.9199,-7.45898 z m -41.7578,8.03125 12.918,7.45898 -12.4219,7.17188 v -2.56836 h -0.9961 v 2.56836 l -12.4199,-7.17188 z m 111.3496,0 12.9219,7.45898 -12.418,7.16797 v -2.56445 h -0.998 v 2.57031 l -12.4258,-7.17383 z m -55.6757,0.002 12.9218,7.46094 -12.4179,7.16992 v -2.57031 h -1.0039 v 2.57031 l -12.4219,-7.16992 z m 27.8359,0 12.9199,7.46094 -12.4141,7.16601 v -2.5664 h -1.0039 v 2.57226 l -12.4238,-7.17187 z m 55.6836,0 12.9219,7.46094 -12.4258,7.17382 v -2.57421 h -0.9961 v 2.57226 l -12.4219,-7.17187 z m -167.0352,0.002 12.918,7.45899 -12.416,7.16797 v -2.56836 h -0.9961 v 2.57421 l -12.4258,-7.17382 z m 55.6817,0 12.9199,7.45899 -12.4258,7.17382 v -2.57421 h -0.9961 v 2.57031 l -12.418,-7.16992 z m 13.916,8.0332 12.9219,7.46094 -12.4219,7.17188 v -10.60742 h -0.9961 v 10.60742 l -12.4238,-7.17383 z m 27.8359,0 12.9219,7.46094 -12.4199,7.17188 v -10.60742 h -0.9961 v 10.61132 l -12.4278,-7.17578 z m 83.5176,0 12.9219,7.46094 -12.42,7.17188 v -10.60742 h -0.996 v 10.61132 l -12.4278,-7.17578 z m -194.8691,0.002 12.9179,7.45898 -12.4199,7.17188 v -10.60742 h -0.998 v 10.60546 l -12.42,-7.16992 z m 27.8359,0 12.918,7.45898 -12.4121,7.16602 v -10.60156 h -1.004 v 10.60742 l -12.4218,-7.17188 z m 27.8477,0 12.9179,7.45898 -12.4219,7.17188 v -10.60742 h -1.0039 v 10.60156 l -12.4121,-7.16602 z m 83.5039,0 12.9199,7.45898 -12.4102,7.16406 v -10.5996 h -1.0039 v 10.60937 l -12.4258,-7.17383 z m 27.8457,0 12.9218,7.45898 -12.4199,7.16992 v -10.60546 h -1.0039 v 10.60546 l -12.418,-7.16992 z m -153.6094,8.32031 v 14.34766 l -12.4258,-7.17383 z m 56.6699,0 12.4258,7.17383 -12.4258,7.17383 z m 138.1973,0 v 14.34766 l -12.4258,-7.17383 z m -139.1934,0.002 v 14.3418 l -12.4199,-7.17187 z m 27.836,0 v 14.3418 l -12.4219,-7.16992 z m 83.5195,0 v 14.34571 l -12.4219,-7.17383 z m 0.9961,0 12.4238,7.17188 -12.4238,7.17383 z m -194.8672,0.002 12.4199,7.16992 -12.4199,7.16992 z m 27.8379,0 12.416,7.16992 -12.416,7.16797 z m 83.5176,0 12.4179,7.16992 -12.4179,7.16992 z m 26.8339,0 v 14.34179 l -12.4218,-7.16992 z m 27.8438,0 v 14.34765 l -12.4258,-7.17383 z m -167.0371,0.002 v 14.33594 l -12.4141,-7.16797 z m 56.6777,0 12.4219,7.17187 -12.4219,7.17188 z m 83.5195,0 12.4141,7.16797 -12.4141,7.16601 z m 27.8379,0 12.418,7.17187 -12.418,7.16797 z m 55.6817,0 12.414,7.16797 -12.414,7.16797 z m -168.0352,0.002 v 14.3418 l -12.4199,-7.17188 z m 153.1153,8.02539 v 14.35157 l -12.4278,-7.17578 z m -111.3555,0.002 v 14.3457 l -12.4238,-7.17383 z m -82.5215,0.002 12.4199,7.17188 -12.4199,7.17187 z m 83.5176,0 12.4219,7.17188 -12.4219,7.17187 z m 26.8418,0 v 14.34766 l -12.4238,-7.17578 z m -111.3574,0.002 v 14.33985 l -12.418,-7.16992 z m 55.6757,0 v 14.34375 l -12.4218,-7.17187 z m 56.6778,0 12.4199,7.16993 -12.4199,7.17187 z m 110.3593,0 v 14.34766 l -12.4238,-7.17383 z m -83.5195,0.002 v 14.34375 l -12.4219,-7.17188 z m 27.8379,0 v 14.3457 l -12.4238,-7.17383 z m 28.8398,0 12.42,7.16797 -12.42,7.17187 z m -222.7109,0.002 12.418,7.16992 -12.418,7.16992 z m 55.6817,0 12.4179,7.16992 -12.4179,7.16992 z m 111.3554,0 12.418,7.16992 -12.418,7.16992 z m -112.3594,0.002 v 14.33789 l -12.416,-7.16992 z m 28.8418,0 12.4161,7.16797 -12.4161,7.16797 z m 111.3555,0.002 12.4141,7.16601 -12.4141,7.16797 z m -98.4375,8.02539 v 14.34765 l -12.4258,-7.17187 z m 111.3555,0 v 14.35156 l -12.4297,-7.17578 z m -139.1934,0.002 v 14.3457 l -12.4238,-7.17383 z m 55.6739,0 v 14.33984 l -12.418,-7.16992 z m 1.0039,0 12.4179,7.16992 -12.4179,7.16992 z m -112.3594,0.002 v 14.34375 l -12.4199,-7.17187 z m 28.8418,0 12.4238,7.17188 -12.4238,7.17187 z m 27.8359,0 12.4219,7.17188 -12.4219,7.17187 z m 27.8379,0 12.4199,7.17188 -12.4199,7.16992 z m 55.6816,0 12.4219,7.17188 -12.4219,7.16992 z m 26.8399,0 v 14.34571 l -12.4238,-7.17188 z m -139.1914,0.002 v 14.33984 l -12.4199,-7.16992 z m 111.3476,0 v 14.33789 l -12.4179,-7.16797 z m 28.8418,0 12.418,7.16992 -12.418,7.16797 z m 27.836,0 12.4179,7.16992 -12.4179,7.16992 z m 26.8418,0 v 14.34179 l -12.42,-7.17187 z m 1.0039,0.002 12.4199,7.16797 -12.4199,7.17187 z m -222.7129,0.002 12.4121,7.16602 -12.4121,7.16601 z m 96.4375,8.02539 v 14.35157 l -12.4277,-7.17579 z m -27.8438,0.002 v 14.34375 l -12.4218,-7.17188 z m 56.6778,0 12.4258,7.17382 -12.4258,7.17383 z m 54.6777,0 v 14.34765 l -12.4258,-7.17383 z m -139.1934,0.002 v 14.3418 l -12.4179,-7.17188 z m 83.5196,0 v 14.3418 l -12.4199,-7.16993 z m 83.5176,0 v 14.35156 l -12.4278,-7.17578 z m 27.8378,0 v 14.3457 l -12.4238,-7.17383 z m -193.871,0.002 12.4179,7.16992 -12.4179,7.16993 z m 110.3515,0 v 14.3418 l -12.4199,-7.16992 z m 1.0039,0 12.418,7.16992 -12.418,7.16993 z m -167.0371,0.002 12.416,7.16797 -12.416,7.16993 z m 27.8379,0 12.4219,7.17188 -12.4219,7.17188 z m 55.6816,0 12.4161,7.16797 -12.4161,7.16797 z m 27.836,0 12.416,7.16797 -12.416,7.16602 z m 83.5195,0 12.4141,7.16797 -12.4141,7.16797 z m 27.8359,0 12.42,7.17188 -12.42,7.17188 z m -195.871,0.002 v 14.33984 l -12.42,-7.16992 z m 153.1152,8.02539 v 14.34961 l -12.4277,-7.17383 z m -139.1914,0.002 v 14.35156 l -12.4278,-7.17578 z m 27.8359,0 v 14.3457 l -12.4238,-7.17382 z m 0.9961,0.002 12.4219,7.17187 -12.4219,7.17187 z m 26.8418,0 v 14.34374 l -12.4238,-7.17187 z m 56.6777,0 12.4219,7.17187 -12.4219,7.16992 z m -55.6816,0.002 12.4199,7.16992 -12.4199,7.16992 z m 83.5195,0 12.418,7.16992 -12.418,7.16797 z m 26.8399,0 v 14.34765 l -12.4238,-7.17382 z m 0.9961,0 12.4238,7.17383 -12.4238,7.17382 z m 26.8418,0 v 14.34765 l -12.4258,-7.17382 z m -111.3574,0.002 v 14.3418 l -12.4219,-7.16992 z m -110.3516,0.002 12.4199,7.16993 -12.4199,7.16992 z m 111.3555,0 12.4179,7.16993 -12.4179,7.16992 z m 26.8339,0 v 14.33399 l -12.414,-7.16797 z m -139.1933,0.002 v 14.33593 l -12.4141,-7.16796 z m 28.8418,0 12.416,7.16797 -12.416,7.16796 z m 194.875,0 12.414,7.16797 -12.414,7.16796 z m -70.6016,8.02539 v 14.3457 l -12.4219,-7.17187 z m 83.5195,0 v 14.35547 l -12.4316,-7.17774 z m -194.875,0.002 v 14.34766 l -12.4257,-7.17383 z m 167.0372,0 v 14.35156 l -12.4278,-7.17578 z m -194.875,0.002 v 14.34375 l -12.4219,-7.16992 z m 55.6757,0 v 14.33985 l -12.4199,-7.16992 z m 27.8438,0 v 14.34571 l -12.4238,-7.17383 z m -110.3594,0.002 12.4238,7.17187 -12.4238,7.17188 z m 27.8379,0 12.4199,7.17187 -12.4199,7.17188 z m 55.6816,0 12.4161,7.16797 -12.4161,7.16797 z m 27.836,0 12.4219,7.17187 -12.4219,7.17188 z m 26.8418,0 V 371.123 l -12.4238,-7.17578 z m 28.8398,0 12.418,7.16797 -12.418,7.16992 z m 26.834,0 v 14.34179 l -12.4199,-7.16992 z m 1.0039,0 12.4219,7.17187 -12.4219,7.17188 z m 27.8359,0 12.42,7.17187 -12.42,7.17188 z m -83.5175,0.002 12.4199,7.16992 -12.4199,7.17188 z m -83.5117,0.004 12.4121,7.16601 -12.4121,7.16602 z m -14.918,8.02343 v 14.35157 l -12.4278,-7.17578 z m 27.8359,0.002 v 14.35156 l -12.4277,-7.17578 z m 28.834,0.002 12.4258,7.17383 -12.4258,7.17383 z m 54.6777,0 v 14.34766 l -12.4238,-7.17383 z m 28.8418,0 12.4258,7.17383 -12.4258,7.17383 z m 26.8399,0 v 14.34766 l -12.4238,-7.17383 z m 0.9961,0 12.4238,7.17383 -12.4238,7.17383 z m 26.8418,0 v 14.34766 l -12.4258,-7.17383 z m -139.1934,0.002 v 14.3418 l -12.4199,-7.17187 z m 83.5176,0 v 14.34375 l -12.4199,-7.17187 z m -167.0371,0.002 v 14.33789 l -12.416,-7.16797 z m 1.0039,0 12.4199,7.16992 -12.4199,7.16992 z m 110.3516,0 v 14.33984 l -12.418,-7.16992 z m 1.0039,0 12.4179,7.16992 -12.4179,7.16992 z m -83.5176,0.002 12.416,7.16797 -12.416,7.16797 z m 27.8359,0 12.416,7.16797 -12.416,7.16797 z m 83.5195,0 12.4161,7.16797 -12.4161,7.16797 z m 83.5196,0 12.414,7.16797 -12.414,7.16797 z m -98.4375,8.02539 v 14.35352 l -12.4278,-7.17774 z m 111.3554,0 v 14.35547 l -12.4316,-7.17774 z m -27.8378,0.002 v 14.35157 l -12.4278,-7.17579 z m -194.875,0.002 v 14.34375 l -12.4219,-7.16993 z m -26.8399,0.002 12.4238,7.17187 -12.4238,7.17188 z m 27.8379,0 12.4199,7.17187 -12.4199,7.17188 z m 26.8398,0 v 14.34375 l -12.4238,-7.17188 z m 55.6817,0 v 14.34375 l -12.4219,-7.17188 z m 0.9961,0 12.4219,7.17187 -12.4219,7.17188 z m 82.5156,0 v 14.3418 l -12.4199,-7.16993 z m 1.0039,0 12.4219,7.17187 -12.4219,7.17188 z m 27.8359,0 12.42,7.17187 -12.42,7.17188 z m -140.1953,0.002 v 14.34375 l -12.4218,-7.17187 z m 56.6778,0 12.4199,7.16992 -12.4199,7.17188 z m 26.8398,0.002 v 14.34375 l -12.4219,-7.17188 z m -110.3515,0.002 12.4121,7.16601 -12.4121,7.16602 z m 111.3554,0 12.418,7.16992 -12.418,7.16992 z m -83.5176,0.002 12.4161,7.16797 -12.4161,7.16797 z m -42.7558,8.02539 v 14.34766 l -12.4258,-7.17383 z m 167.0293,0 v 14.34766 l -12.4238,-7.17383 z m 0.9961,0 12.4238,7.17383 -12.4238,7.17383 z m 26.8418,0 v 14.34766 l -12.4258,-7.17383 z m -111.3574,0.002 v 14.34179 l -12.4219,-7.16992 z m 55.6816,0 v 14.34961 l -12.4277,-7.17383 z m -167.0371,0.002 v 14.33789 l -12.416,-7.16797 z m 1.0039,0 12.4199,7.16992 -12.4199,7.16992 z m 54.6777,0 v 14.3457 l -12.4238,-7.17383 z m 56.6778,0 12.4179,7.16992 -12.4179,7.16992 z m -83.5176,0.002 12.416,7.16797 -12.416,7.16797 z m 27.8359,0 12.4219,7.17188 -12.4219,7.17187 z m 26.8418,0 v 14.34375 l -12.4238,-7.17187 z m 56.6777,0 12.4219,7.17188 -12.4219,7.16992 z m 83.5196,0 12.414,7.16797 -12.414,7.16797 z m -139.2012,0.002 12.4199,7.16992 -12.4199,7.16992 z m 54.6777,0 v 14.33789 l -12.4179,-7.16797 z m 28.8418,0 12.42,7.16992 -12.42,7.17187 z m 40.7618,8.02539 v 14.35156 l -12.4278,-7.17578 z m -111.3555,0.002 v 14.35351 l -12.4317,-7.17578 z m -82.5215,0.002 12.4219,7.17188 -12.4219,7.17187 z m 194.873,0 12.42,7.17188 -12.42,7.17187 z m -195.871,0.002 v 14.33984 l -12.42,-7.16992 z m 112.3535,0 12.4258,7.17382 -12.4258,7.17383 z m 26.8398,0 v 14.3457 l -12.4219,-7.17188 z m 27.8379,0 v 14.34765 l -12.4258,-7.17383 z m 55.6816,0 v 14.34765 l -12.4238,-7.17383 z m -194.875,0.002 v 14.3418 l -12.4179,-7.17188 z m 83.5196,0 v 14.3418 l -12.4199,-7.16993 z m -138.1973,0.002 12.418,7.16992 -12.418,7.16993 z m 55.6817,0 12.4179,7.16992 -12.4179,7.16993 z m 26.8339,0 v 14.33985 l -12.4199,-7.16993 z m 1.0039,0.002 12.4161,7.16796 -12.4161,7.16797 z m 27.836,0 12.416,7.16796 -12.416,7.16602 z m 55.6816,0 12.418,7.16796 -12.418,7.16993 z m 27.8379,0 12.4141,7.16796 -12.4141,7.16797 z m -98.4375,8.02734 v 14.34766 L 1410.707,404.125 Z m 83.5176,0 v 14.34961 l -12.4277,-7.17383 z m 27.8379,0 v 14.35156 l -12.4297,-7.17578 z m -167.0293,0.002 v 14.34375 l -12.4199,-7.16992 z m 0.9961,0 12.4238,7.17383 -12.4238,7.17188 z m -28.8418,0.002 v 14.34376 l -12.4219,-7.17188 z m 55.6816,0 v 14.34376 L 1382.873,404.125 Z m 0.9961,0 12.4219,7.17188 -12.4219,7.17188 z m 27.8379,0 12.4199,7.17188 -12.4199,7.16992 z m 55.6816,0 12.4219,7.17188 -12.4219,7.16992 z m 82.5157,0 v 14.34376 l -12.42,-7.17188 z m 1.0039,0 12.4219,7.17188 -12.4219,7.17188 z m -84.5235,0.002 v 14.33789 l -12.4179,-7.16797 z m 28.8418,0 12.418,7.16992 -12.418,7.16797 z m 27.836,0 12.4179,7.16992 -12.4179,7.16992 z m -84.5156,0.002 v 14.3418 l -12.4219,-7.16992 z m -110.3516,0.002 12.4121,7.16602 -12.4121,7.16602 z m 111.3555,0 12.4179,7.16993 -12.4179,7.16992 z m -42.7618,8.02735 v 14.34375 l -12.4218,-7.16992 z m 83.5176,0 v 14.3457 l -12.4219,-7.17187 z m 27.8379,0 v 14.34765 l -12.4258,-7.17382 z m 55.6816,0 v 14.34765 l -12.4238,-7.17382 z m -111.3554,0.002 v 14.35156 l -12.4278,-7.17578 z m 83.5176,0 v 14.35156 l -12.4278,-7.17578 z m -221.7149,0.002 12.416,7.16993 -12.416,7.16992 z m 55.6817,0 12.4179,7.16993 -12.4179,7.16992 z m 54.6777,0 v 14.34571 l -12.4238,-7.17383 z m -83.5195,0.002 v 14.34179 l -12.42,-7.16992 z m 27.8378,0 v 14.33789 l -12.416,-7.16992 z m 28.8418,0 12.4161,7.16797 -12.4161,7.16796 z m 27.836,0 12.4219,7.17187 -12.4219,7.17188 z m 27.8379,0 12.4199,7.17187 -12.4199,7.17188 z m 27.8437,0 12.418,7.16797 -12.418,7.16992 z m 27.8379,0 12.4141,7.16797 -12.4141,7.16796 z m 27.8359,0 12.4219,7.17187 -12.4219,7.17188 z m -194.873,0.002 12.4219,7.16992 -12.4219,7.17188 z m 152.1172,8.02539 v 14.34961 l -12.4277,-7.17383 z m -111.3555,0.002 v 14.34571 l -12.4219,-7.17188 z m 0.9961,0 12.4219,7.17383 -12.4219,7.17188 z m -28.832,0.004 v 14.34766 l -12.4258,-7.17383 z m 56.6699,0 12.4258,7.17383 -12.4258,7.17383 z m 54.6777,0 v 14.34766 l -12.4238,-7.17383 z m 28.8418,0 12.418,7.16992 -12.418,7.16797 z m 26.8399,0 v 14.3457 l -12.4238,-7.17187 z m 0.9961,0 12.4258,7.17383 -12.4258,7.17383 z m 26.8418,0 v 14.34766 l -12.4258,-7.17383 z m -139.1934,0.002 v 14.3418 l -12.4199,-7.16992 z m 27.836,0 v 14.3418 l -12.4219,-7.16992 z m -110.3516,0.002 12.4199,7.16992 -12.4199,7.16992 z m 27.8379,0 12.416,7.16992 -12.416,7.16797 z m 83.5176,0 12.4179,7.16992 -12.4179,7.16992 z m -112.3594,0.002 v 14.33594 l -12.4141,-7.16797 z m 140.1972,0 12.4161,7.16797 -12.4161,7.16797 z m 83.5196,0 12.414,7.16797 -12.414,7.16797 z m -98.4375,8.02539 v 14.35352 l -12.4278,-7.17774 z m 111.3554,0 v 14.35547 l -12.4316,-7.17773 z m -83.5195,0.002 v 14.35157 l -12.4297,-7.17578 z m 55.6817,0 v 14.35157 l -12.4278,-7.17578 z m -138.1954,0.002 12.4219,7.17383 -12.4219,7.17187 z m 26.8399,0 v 14.3457 l -12.4238,-7.17187 z m -110.3594,0.002 12.4238,7.17188 -12.4238,7.17187 z m 27.8379,0 12.4199,7.17188 -12.4199,7.17187 z m 26.8398,0 v 14.34375 l -12.4238,-7.17187 z m 56.6778,0 12.4219,7.17188 -12.4219,7.17187 z m 82.5156,0 v 14.3418 l -12.4199,-7.16992 z m 1.0039,0 12.4219,7.17188 -12.4219,7.17187 z m 27.8359,0 12.42,7.17188 -12.42,7.17187 z m -195.871,0.002 v 14.33985 l -12.42,-7.16992 z m 112.3535,0 12.4199,7.16993 -12.4199,7.17187 z m -56.6778,0.002 v 14.33398 l -12.414,-7.16601 z m -26.8339,0.002 12.4121,7.16602 -12.4121,7.16601 z m 111.3554,0 12.4102,7.16602 -12.4102,7.16406 z m -126.2734,8.02734 v 14.34766 l -12.4258,-7.17383 z m 56.6699,0 12.4258,7.17383 -12.4258,7.17383 z m 54.6777,0 v 14.34571 l -12.4238,-7.17188 z m 55.6817,0 v 14.34766 l -12.4238,-7.17383 z m 0.9961,0 12.4238,7.17383 -12.4238,7.17383 z m 26.8418,0 v 14.34766 l -12.4258,-7.17383 z m -139.1934,0.002 v 14.34179 l -12.4199,-7.16992 z m 27.836,0 v 14.34179 l -12.42,-7.16992 z m 55.6816,0 v 14.34961 l -12.4277,-7.17383 z m -166.0332,0.002 12.4199,7.16992 -12.4199,7.16992 z m 111.3555,0 12.4179,7.16992 -12.4179,7.16797 z m -112.3594,0.002 v 14.33594 l -12.4141,-7.16797 z m 28.8418,0 12.416,7.16797 -12.416,7.16797 z m 26.8398,0 v 14.34375 l -12.4219,-7.17187 z m 0.9961,0 12.4219,7.17188 -12.4219,7.17187 z m 83.5195,0 12.4141,7.16797 -12.4141,7.16602 z m 83.5196,0 12.414,7.16797 -12.414,7.16797 z m -55.6817,0.002 12.42,7.16992 -12.42,7.17187 z m 68.5996,8.02343 v 14.35547 l -12.4316,-7.17773 z m -111.3554,0.002 v 14.34961 l -12.4278,-7.17383 z m 83.5176,0 v 14.35156 l -12.4278,-7.17578 z m -111.3555,0.002 v 14.3457 l -12.4238,-7.17187 z m -110.3594,0.002 12.4238,7.17188 -12.4238,7.17187 z m 27.8379,0 12.4219,7.17188 -12.4219,7.17187 z m 83.5176,0 12.4219,7.17188 -12.4219,7.17187 z m 111.3554,0 12.42,7.17188 -12.42,7.17187 z m -195.871,0.002 v 14.33984 l -12.42,-7.16992 z m 55.6757,0 v 14.34375 l -12.4218,-7.16993 z m 56.6778,0 12.4199,7.16992 -12.4199,7.16992 z m 26.8398,0 v 14.3457 l -12.4219,-7.17188 z m 27.8379,0 v 14.34765 l -12.4258,-7.17383 z m -139.1934,0.004 v 14.33985 l -12.416,-7.16993 z m 1.004,0 12.4179,7.16992 -12.4179,7.16993 z m 27.8378,0.002 12.4161,7.16797 -12.4161,7.16797 z m 83.5176,0 12.418,7.16797 -12.418,7.16993 z m 27.8379,0 12.4141,7.16797 -12.4141,7.16797 z m 40.7559,8.0254 v 14.34765 l -12.4258,-7.17383 z m -139.1934,0.002 v 14.34765 l -12.4258,-7.17187 z m 27.836,0 v 14.3418 l -12.4219,-7.16993 z m 55.6816,0 v 14.34961 l -12.4277,-7.17383 z m 27.8379,0 v 14.35156 l -12.4297,-7.17578 z m -193.8711,0.002 12.4199,7.16992 -12.4199,7.16993 z m 54.6777,0 v 14.3457 l -12.4219,-7.17187 z m 0.9961,0 12.4219,7.17383 -12.4219,7.17187 z m 55.6817,0 12.4179,7.16992 -12.4179,7.16797 z m -112.3594,0.002 v 14.33593 l -12.4141,-7.16797 z m 28.8418,0 12.4238,7.17187 -12.4238,7.17187 z m 55.6738,0 12.4199,7.17187 -12.4199,7.16992 z m 55.6816,0 12.4219,7.17187 -12.4219,7.16992 z m 83.5196,0 12.414,7.16796 -12.414,7.16797 z m -195.8711,0.002 v 14.33984 l -12.4199,-7.16992 z m 111.3476,0 v 14.33789 l -12.4179,-7.16797 z m 28.8418,0 12.418,7.16992 -12.418,7.16797 z m 27.836,0 12.4179,7.16992 -12.4179,7.16992 z m 12.9258,8.02539 v 14.35937 l -12.4336,-7.17968 z m -111.3555,0.002 v 14.35352 l -12.4317,-7.17578 z m -82.5215,0.002 12.4277,7.17579 -12.4277,7.17578 z m 54.6777,0.002 v 14.34375 l -12.4218,-7.16992 z m 56.6778,0 12.4258,7.17383 -12.4258,7.17187 z m 26.8398,0 v 14.34375 l -12.4219,-7.16992 z m 27.8379,0 v 14.34765 l -12.4258,-7.17382 z m 55.6816,0 v 14.34765 l -12.4238,-7.17382 z m -111.3554,0.002 v 14.3418 l -12.4199,-7.16992 z m -138.1973,0.002 12.418,7.16993 -12.418,7.16992 z m 54.6777,0 v 14.33985 l -12.4179,-7.16992 z m 1.004,0 12.4179,7.16993 -12.4179,7.16992 z m 27.8378,0.002 12.4161,7.16797 -12.4161,7.16797 z m 27.836,0 12.414,7.16797 -12.414,7.16601 z m 55.6816,0 12.418,7.16797 -12.418,7.16797 z m 27.8379,0 12.4141,7.16797 -12.4141,7.16797 z m 27.8359,0 12.4141,7.16797 -12.4141,7.16797 z m -195.871,0.002 v 14.33203 L 1341.123,460.384 Z m 69.5976,8.02539 v 14.34766 l -12.4258,-7.17188 z m 83.5176,0 v 14.34961 l -12.4258,-7.17383 z m 27.8379,0 v 14.35156 l -12.4297,-7.17578 z m -139.1934,0.002 v 14.34571 l -12.4219,-7.17188 z m 0.9961,0 12.4219,7.17383 -12.4219,7.17188 z m -28.832,0.002 v 14.34179 l -12.4199,-7.16992 z m 0.9961,0 12.4238,7.17187 -12.4238,7.17188 z m 55.6738,0 12.4199,7.17187 -12.4199,7.16992 z m 55.6816,0 12.4219,7.17187 -12.4219,7.16992 z m -1.0039,0.002 v 14.33789 l -12.4179,-7.16797 z m 28.8418,0 12.418,7.16992 -12.418,7.16797 z m 27.836,0 12.4179,7.16992 -12.4179,7.16992 z m 26.8418,0 v 14.34766 l -12.4258,-7.17383 z m -111.3574,0.002 v 14.3418 l -12.42,-7.16992 z m -110.3516,0.002 12.4199,7.16992 -12.4199,7.16992 z m 111.3555,0 12.4179,7.16992 -12.4179,7.16797 z m -112.3594,0.002 v 14.33594 l -12.4141,-7.16797 z m 223.7168,0 12.414,7.16797 -12.414,7.16797 z m -154.1192,8.02539 v 14.34375 l -12.4218,-7.16992 z m 111.3555,0 v 14.3457 l -12.4258,-7.17187 z m 55.6816,0 v 14.35547 l -12.4316,-7.17774 z m -194.875,0.002 v 14.33985 l -12.4179,-7.16992 z m 1.004,0 12.4199,7.17188 -12.4199,7.16992 z m 82.5156,0 v 14.34961 l -12.4278,-7.17383 z m 27.8359,0 v 14.3418 l -12.4219,-7.16992 z m 55.6817,0 v 14.35157 l -12.4278,-7.17579 z m -111.3555,0.002 v 14.3457 l -12.4238,-7.17188 z m 56.6777,0 12.416,7.16992 -12.416,7.16797 z m -167.0371,0.002 12.4238,7.17187 -12.4238,7.17188 z m 26.8399,0 v 14.3418 l -12.42,-7.16993 z m 56.6796,0 12.4161,7.16797 -12.4161,7.16797 z m 27.836,0 12.4219,7.17187 -12.4219,7.17188 z m 27.8379,0 12.4179,7.17187 -12.4179,7.16993 z m 55.6816,0 12.4141,7.16797 -12.4141,7.16601 z m 27.8359,0 12.42,7.17187 -12.42,7.17188 z m -194.873,0.002 12.4219,7.16992 -12.4219,7.17188 z m 152.1172,8.02539 v 14.34961 l -12.4258,-7.17382 z m -111.3555,0.002 v 14.3457 l -12.4219,-7.17187 z m 0.9961,0 12.4219,7.17383 -12.4219,7.17187 z m -28.832,0.002 v 14.35156 l -12.4278,-7.17578 z m 56.6699,0.002 12.4258,7.17383 -12.4258,7.17383 z m 54.6777,0 v 14.34571 l -12.4238,-7.17188 z m 28.8418,0 12.418,7.16993 -12.418,7.16796 z m 26.8399,0 v 14.34571 l -12.4238,-7.17188 z m 0.9961,0 12.4238,7.17383 -12.4238,7.17188 z m 26.8418,0 v 14.34766 l -12.4258,-7.17383 z m -139.1934,0.002 v 14.34179 l -12.4199,-7.16992 z m 27.836,0 v 14.34179 l -12.42,-7.16992 z m -110.3516,0.002 12.4199,7.16992 -12.4199,7.16992 z m 27.8379,0 12.416,7.16992 -12.416,7.16797 z m 83.5176,0 12.4179,7.16992 -12.4179,7.16797 z m -112.3594,0.002 v 14.33594 l -12.4141,-7.16797 z m 140.1972,0 12.4141,7.16797 -12.4141,7.16602 z m 83.5196,0 12.414,7.16797 -12.414,7.16797 z m 12.9179,8.02539 v 14.35547 l -12.4316,-7.17773 z m -111.3554,0.002 v 14.34961 l -12.4278,-7.17383 z m 27.8359,0 v 14.35156 l -12.4277,-7.17578 z m 55.6817,0 v 14.35156 l -12.4278,-7.17578 z m -167.0372,0.002 v 14.3457 l -12.4238,-7.17187 z m 28.8418,0 12.4239,7.17383 -12.4239,7.17187 z m 26.8399,0 v 14.3457 l -12.4238,-7.17187 z m -110.3594,0.002 12.4238,7.17188 -12.4238,7.17187 z m 26.8399,0 v 14.3418 l -12.42,-7.16992 z m 84.5156,0 12.4219,7.17188 -12.4219,7.17187 z m 27.8379,0 12.4199,7.17188 -12.4199,7.16992 z m 55.6816,0 12.4199,7.17188 -12.4199,7.16992 z m 27.8359,0 12.42,7.17188 -12.42,7.17187 z m -194.873,0.002 12.4219,7.16992 -12.4219,7.17187 z m 166.0332,0 v 14.33984 l -12.418,-7.16992 z m -111.3555,0.002 v 14.33398 l -12.414,-7.16601 z m 84.5215,0.002 12.4102,7.16602 -12.4102,7.16406 z m -111.3554,0.002 12.4121,7.16406 -12.4121,7.16601 z m 41.7519,8.02343 12.4258,7.17578 -12.4258,7.17383 z m -56.6699,0.002 v 14.34765 l -12.4258,-7.17383 z m 111.3476,0 v 14.3457 l -12.4238,-7.17188 z m 55.6817,0 v 14.34765 l -12.4238,-7.17383 z m 0.9961,0 12.4258,7.17382 -12.4258,7.17383 z m 26.8418,0 v 14.34765 l -12.4258,-7.17383 z m -139.1934,0.002 v 14.3418 l -12.4199,-7.16993 z m 27.836,0 v 14.3418 l -12.42,-7.16993 z m -110.3516,0.002 12.4199,7.16992 -12.4199,7.16993 z m 54.6777,0 v 14.34375 l -12.4219,-7.16992 z m 0.9961,0 12.4238,7.17383 -12.4238,7.17188 z m 55.6817,0 12.4179,7.16992 -12.4179,7.16993 z m 54.6777,0 v 14.34766 l -12.4258,-7.17383 z m -167.0371,0.002 v 14.33594 l -12.4141,-7.16797 z m 28.8418,0 12.416,7.16797 -12.416,7.16993 z m 111.3554,0 12.4141,7.16797 -12.4141,7.16602 z m 27.8379,0 12.418,7.17188 -12.418,7.16797 z m 55.6817,0 12.414,7.16797 -12.414,7.16797 z m -98.4375,8.02735 v 14.34961 l -12.4278,-7.17383 z m 83.5176,0 v 14.35156 l -12.4278,-7.17578 z m -111.3555,0.002 v 14.3457 l -12.4238,-7.17382 z m -82.5215,0.002 12.4219,7.17187 -12.4219,7.17187 z m 83.5176,0 12.4219,7.17187 -12.4219,7.17187 z m 27.8379,0 12.4179,7.17187 -12.4179,7.16992 z m 83.5175,0 12.42,7.17187 -12.42,7.17187 z m -195.871,0.002 v 14.33984 l -12.42,-7.16992 z m 55.6757,0 v 14.34375 l -12.4218,-7.16992 z m 111.3555,0 v 14.34765 l -12.4258,-7.17382 z m 55.6816,0 v 14.34765 l -12.4238,-7.17382 z m -83.5195,0.002 v 14.34375 l -12.4219,-7.17187 z m -166.0332,0.002 12.418,7.16993 -12.418,7.16796 z m 54.6777,0 v 14.33789 l -12.4179,-7.16796 z m 1.004,0 12.4199,7.16993 -12.4199,7.16992 z m 111.3554,0 12.418,7.16993 -12.418,7.16992 z m -83.5176,0.002 12.4161,7.16797 -12.4161,7.16796 z m 111.3555,0 12.4141,7.16797 -12.4141,7.16796 z m -98.4375,8.02734 v 14.34766 l -12.4258,-7.17188 z m 27.836,0 v 14.3418 l -12.4219,-7.16992 z m 55.6816,0 v 14.34961 l -12.4258,-7.17383 z m 27.8379,0 v 14.35156 l -12.4297,-7.17578 z m -139.1934,0.002 v 14.34571 l -12.4219,-7.17188 z m 0.9961,0 12.4219,7.17383 -12.4219,7.17188 z m 55.6817,0 12.4179,7.16993 -12.4179,7.16992 z m -112.3594,0.002 v 14.33594 l -12.4141,-7.16797 z m 27.8457,0 v 14.34179 l -12.4199,-7.16992 z m 0.9961,0 12.4238,7.17187 -12.4238,7.17188 z m 55.6738,0 12.4199,7.17187 -12.4199,7.16992 z m 55.6816,0 12.4219,7.17187 -12.4219,7.17188 z m 82.5157,0 v 14.34179 l -12.42,-7.16992 z m 1.0039,0 12.414,7.16797 -12.414,7.16797 z m -84.5235,0.002 v 14.33984 l -12.416,-7.16992 z m 28.8418,0 12.418,7.16992 -12.418,7.16797 z m 27.836,0 12.4179,7.16992 -12.4179,7.16992 z m -194.8672,0.004 12.4121,7.16601 -12.4121,7.16602 z m 96.4375,8.02343 v 14.35352 l -12.4297,-7.17578 z m -27.8438,0.004 v 14.34375 l -12.4218,-7.16992 z m 56.6778,0 12.4258,7.17383 -12.4258,7.17383 z m 54.6777,0 v 14.34766 l -12.4258,-7.17383 z m 55.6816,0 v 14.34766 l -12.4238,-7.17383 z m -194.875,0.002 v 14.33985 l -12.4179,-7.16797 z m 1.004,0 12.4199,7.17188 -12.4199,7.16992 z m 82.5156,0 v 14.3418 l -12.4199,-7.16992 z m 27.8359,0 v 14.3418 l -12.4219,-7.16992 z m 55.6817,0 v 14.35157 l -12.4278,-7.17578 z m -221.7149,0.002 12.418,7.16992 -12.418,7.16992 z m 167.0371,0 12.416,7.16992 -12.416,7.16797 z m -139.1992,0.002 12.4219,7.17188 -12.4219,7.17187 z m 55.6816,0 12.4161,7.16797 -12.4161,7.16797 z m 27.836,0 12.416,7.16797 -12.416,7.16601 z m 83.5195,0 12.4141,7.16797 -12.4141,7.16797 z m 27.8359,0 12.4141,7.16797 -12.4141,7.16797 z m -195.871,0.002 v 14.33203 l -12.4122,-7.16601 z m 69.5976,8.02539 V 539.875 l -12.4258,-7.17188 z m 83.5176,0 v 14.34961 l -12.4258,-7.17383 z m -111.3555,0.002 v 14.3457 l -12.4219,-7.17188 z m 0.9961,0 12.4219,7.17382 -12.4219,7.17188 z m -28.832,0.002 v 14.3418 l -12.4199,-7.16993 z m 56.6699,0 12.4199,7.17187 -12.4199,7.16993 z m 55.6816,0 12.4219,7.17187 -12.4219,7.16993 z m -1.0039,0.002 v 14.33789 l -12.4179,-7.16797 z m 28.8418,0 12.42,7.16992 -12.42,7.17188 z m 26.8399,0 v 14.34766 l -12.4238,-7.17383 z m 0.9961,0 12.4179,7.16992 -12.4179,7.16993 z m 26.8418,0 v 14.34766 l -12.4258,-7.17383 z m -111.3574,0.002 v 14.34179 l -12.42,-7.16992 z m -110.3516,0.002 12.4199,7.16992 -12.4199,7.16992 z m 111.3555,0 12.4179,7.16992 -12.4179,7.16797 z m -112.3594,0.002 V 539.875 l -12.4141,-7.16797 z m 28.8418,0 12.4179,7.16797 -12.4179,7.16797 z m 194.875,0 12.414,7.16797 -12.414,7.16797 z m -154.1192,8.02539 v 14.34375 l -12.4218,-7.17187 z m 167.0371,0 v 14.35547 l -12.4316,-7.17773 z m -111.3554,0.002 v 14.34961 l -12.4278,-7.17383 z m 27.8359,0 v 14.34375 l -12.4219,-7.17188 z m 55.6817,0 v 14.35156 l -12.4278,-7.17578 z m -167.0372,0.002 v 14.33984 l -12.4179,-7.16992 z m 55.6817,0 v 14.3457 l -12.4238,-7.17187 z m 56.6777,0 12.418,7.16992 -12.418,7.16992 z m -167.0371,0.002 12.4238,7.17188 -12.4238,7.17187 z m 27.8379,0 12.4219,7.17188 -12.4219,7.17187 z m 55.6816,0 12.4161,7.16797 -12.4161,7.16797 z m 27.836,0 12.4219,7.17188 -12.4219,7.17187 z m 27.8379,0 12.4199,7.17188 -12.4199,7.16992 z m 55.6816,0 12.4141,7.16797 -12.4141,7.16797 z m 27.8359,0 12.42,7.17188 -12.42,7.17187 z m -195.871,0.002 v 14.33984 l -12.42,-7.16992 z m 167.0312,0 v 14.33984 l -12.418,-7.16992 z m -138.1894,0.006 12.4121,7.16407 -12.4121,7.16601 z m 12.9179,8.02149 v 14.3457 l -12.4219,-7.17187 z m -27.8359,0.002 v 14.35156 l -12.4278,-7.17578 z m 56.6699,0 12.4258,7.17578 -12.4258,7.17383 z m 54.6777,0.002 v 14.34765 l -12.4238,-7.17383 z m 28.8418,0 12.42,7.16992 -12.42,7.17187 z m 26.8399,0 v 14.34765 l -12.4238,-7.17383 z m 0.9961,0 12.4258,7.17382 -12.4258,7.17383 z m 26.8418,0 v 14.34765 l -12.4258,-7.17383 z m -139.1934,0.002 v 14.3418 l -12.4199,-7.16993 z m 27.836,0 v 14.3418 l -12.42,-7.16993 z m 55.6816,0 v 14.3418 l -12.4199,-7.16993 z m -166.0332,0.002 12.4199,7.16992 -12.4199,7.16993 z m 111.3555,0 12.4179,7.16992 -12.4179,7.16797 z m -112.3594,0.002 v 14.91796 l -12.918,7.45704 v -14.91602 z m 28.8418,0 12.416,7.16796 -12.416,7.16797 z m 27.8359,0 12.416,7.16796 -12.416,7.16797 z m 83.5195,0 12.4161,7.16796 -12.4161,7.16797 z m 83.5196,0 12.9179,7.45898 v 14.92187 l -12.9179,-7.45898 z m -98.4375,8.02734 v 14.35156 l -12.4278,-7.17578 z m 83.5176,0 v 14.35156 l -12.4278,-7.17578 z m -167.0372,0.002 v 14.34571 l -12.4238,-7.17188 z m 55.6817,0 v 14.34571 l -12.4238,-7.17188 z m -83.5195,0.002 v 14.91993 l -12.918,7.45703 v -14.91797 z m 84.5156,0 12.4219,7.17188 -12.4219,7.17188 z m 27.8379,0 12.4199,7.17188 -12.4199,7.17188 z m 55.6816,0 12.4219,7.17188 -12.4219,7.17188 z m 27.8359,0 12.92,7.46094 v 14.92188 l -12.92,-7.46094 z m -194.873,0.002 12.4219,7.16992 -12.4219,7.17188 z m 54.6777,0 v 14.33594 l -12.414,-7.16602 z m 111.3555,0 v 14.33984 l -12.418,-7.16992 z m -27.8379,0.002 v 14.34375 l -12.4219,-7.17187 z m 1.0039,0.002 12.4121,7.16602 -12.4121,7.16602 z m -111.3554,0.002 12.4121,7.16406 -12.4121,7.16602 z m 27.8378,0 12.4161,7.16797 -12.4161,7.16797 z m -42.7558,8.02344 v 14.91796 l -12.9258,7.46289 v -14.91796 z m 167.0293,0.002 v 14.34765 l -12.4238,-7.17382 z m 0.9961,0 12.9258,7.46289 v 14.92187 l -12.9258,-7.46289 z m -112.3516,0.002 v 14.3418 l -12.418,-7.16992 z m 27.836,0 v 14.3418 l -12.42,-7.16992 z m -55.6739,0.002 v 14.34571 l -12.4219,-7.17188 z m 0.9961,0 12.4219,7.17383 -12.4219,7.17188 z m 55.6817,0 12.4179,7.16993 -12.4179,7.16796 z m 54.6777,0 v 14.34766 l -12.4258,-7.17383 z m -167.0371,0.002 v 14.91797 l -12.918,7.45703 v -14.91602 z m 28.8418,0 12.416,7.16797 -12.416,7.16796 z m 55.6738,0 12.4199,7.17187 -12.4199,7.16992 z m 55.6816,0 12.4161,7.16797 -12.4161,7.16796 z m 27.8379,0 12.42,7.17187 -12.42,7.17188 z m 55.6817,0 12.9179,7.45898 V 580.069 l -12.9179,-7.45899 z m -84.5235,0.002 v 14.33984 l -12.4179,-7.16992 z m -41.7519,8.02734 v 14.34571 l -12.4238,-7.17188 z m -83.5195,0.002 v 14.91797 l -12.918,7.45898 v -14.91797 z m 112.3535,0.002 12.4199,7.16992 -12.4199,7.16992 z m 54.6777,0 v 14.34766 l -12.4258,-7.17383 z m 28.8398,0 12.92,7.45899 v 14.92187 l -12.92,-7.45898 z m -84.5136,0.002 v 14.3418 l -12.4199,-7.16992 z m 27.8359,0 v 14.34375 l -12.4219,-7.17187 z m -111.3555,0.002 v 14.91992 l -12.9179,7.45898 v -14.91992 z m 1.004,0 12.4199,7.16992 -12.4199,7.17187 z m 26.8339,0 v 14.33984 l -12.4199,-7.16992 z m 84.5215,0 12.418,7.16992 -12.418,7.16992 z m -83.5176,0.002 12.4161,7.16797 -12.4161,7.16797 z m 27.836,0 12.416,7.16797 -12.416,7.16797 z m 83.5195,0 12.918,7.45898 v 14.92188 l -12.918,-7.45899 z m -98.4375,8.02734 v 14.34766 l -12.4258,-7.17187 z m 83.5176,0 v 14.34961 l -12.4258,-7.17382 z m -167.0371,0.004 v 14.91797 l -12.918,7.45703 V 581.2178 Z m 27.8457,0 v 14.91992 l -12.9258,7.46289 v -14.91992 z m 27.8359,0 v 14.91797 l -12.9179,7.45898 V 581.2178 Z m 0.9961,0 12.4219,7.17188 -12.4219,7.17187 z m 27.8379,0 12.4199,7.17188 -12.4199,7.16992 z m 55.6816,0 12.4219,7.17188 -12.4219,7.16992 z m 83.5196,0 12.9179,7.45898 v 14.92188 l -12.9179,-7.45898 z m -84.5235,0.002 v 14.33789 l -12.4179,-7.16796 z m 28.8418,0 12.918,7.45899 v 14.91992 l -12.918,-7.45898 z m 27.836,0 12.9258,7.46289 v 14.92188 l -12.9258,-7.46289 z m -84.5156,0.002 v 14.33398 l -12.4141,-7.16601 z m 1.0039,0.002 12.4121,7.16602 -12.4121,7.16601 z m 12.9199,8.0293 v 14.34179 l -12.4199,-7.16992 z m 27.8359,0 v 14.34375 l -12.4219,-7.17188 z m -111.3555,0.002 v 14.91992 l -12.9179,7.45899 V 589.2551 Z m 27.8379,0 v 14.91797 l -12.9199,7.45898 V 589.2551 Z m 27.8438,0 v 14.3457 l -12.4238,-7.17187 z m 56.6777,0 12.918,7.45898 v 14.92188 l -12.918,-7.45899 z m -140.1972,0.002 v 14.91992 l -12.918,7.45704 v -14.91797 z m 56.6796,0 12.4161,7.16797 -12.4161,7.16797 z m 27.836,0 12.416,7.16797 -12.416,7.16797 z m 27.8379,0 12.4199,7.17188 -12.4199,7.16992 z m 55.6816,0 12.918,7.45899 v 14.91992 l -12.918,-7.45899 z m 27.8359,0.002 12.92,7.45898 v 14.92188 l -12.92,-7.45899 z m -181.9472,8.02929 v 14.91992 l -12.9258,7.46289 V 597.2832 Z m 27.8359,0 v 14.91797 l -12.9179,7.45899 V 597.2793 Z m 28.834,0.002 12.4199,7.16992 -12.4199,7.16992 z m 54.6777,0 v 14.33984 l -12.4179,-7.16992 z m 28.8418,0 12.918,7.45898 v 14.91992 l -12.918,-7.45703 z m 27.836,0 12.9258,7.46289 v 14.91992 l -12.9258,-7.46289 z m -84.5156,0.002 v 14.3418 l -12.42,-7.16993 z m -27.836,0.002 v 14.91211 l -12.918,7.45703 V 597.2944 Z m 28.8399,0 12.4179,7.16992 -12.4179,7.16993 z m -112.3594,0.002 v 14.91797 l -12.918,7.45703 V 597.2964 Z m 140.1972,0 12.918,7.45899 v 14.91406 l -12.918,-7.45898 z m 83.5196,0 12.9179,7.45899 v 14.92187 L 1563.3301,604.75 Z m -98.4375,8.02735 v 14.35156 l -12.4278,-7.17578 z m -26.8418,0.004 12.4219,7.17187 -12.4219,7.17187 z"
       transform="matrix(0.23760451,0,0,0.23760451,-318.4176,199.06851)"
       id="path1013"
       clip-path="url(#clipPath1422)"
       inkscape:export-filename="/home/igorvac/Documentos/FAB LAB/SITE/imagens/fundo.png"
       inkscape:export-xdpi="100"
       inkscape:export-ydpi="100"
       inkscape:connector-curvature="0" />
  </g>
</svg>
