<?xml version="1.0" encoding="UTF-8" standalone="no"?>
<!-- Created with Inkscape (http://www.inkscape.org/) -->

<svg
   xmlns:dc="http://purl.org/dc/elements/1.1/"
   xmlns:cc="http://creativecommons.org/ns#"
   xmlns:rdf="http://www.w3.org/1999/02/22-rdf-syntax-ns#"
   xmlns:svg="http://www.w3.org/2000/svg"
   xmlns="http://www.w3.org/2000/svg"
   xmlns:sodipodi="http://sodipodi.sourceforge.net/DTD/sodipodi-0.dtd"
   xmlns:inkscape="http://www.inkscape.org/namespaces/inkscape"
   width="600"
   height="200"
   viewBox="0 0 158.75 52.916668"
   version="1.1"
   id="svg8"
   inkscape:version="0.92.3 (unknown)"
   sodipodi:docname="top_image.svg">
  <defs
     id="defs2" />
  <sodipodi:namedview
     id="base"
     pagecolor="#ffffff"
     bordercolor="#666666"
     borderopacity="1.0"
     inkscape:pageopacity="0.0"
     inkscape:pageshadow="2"
     inkscape:zoom="0.90966268"
     inkscape:cx="453.67181"
     inkscape:cy="-7.1308313"
     inkscape:document-units="px"
     inkscape:current-layer="layer1"
     showgrid="false"
     units="px"
     inkscape:window-width="1920"
     inkscape:window-height="1017"
     inkscape:window-x="0"
     inkscape:window-y="27"
     inkscape:window-maximized="1" />
  <metadata
     id="metadata5">
    <rdf:RDF>
      <cc:Work
         rdf:about="">
        <dc:format>image/svg+xml</dc:format>
        <dc:type
           rdf:resource="http://purl.org/dc/dcmitype/StillImage" />
        <dc:title></dc:title>
      </cc:Work>
    </rdf:RDF>
  </metadata>
  <g
     inkscape:label="Camada 1"
     inkscape:groupmode="layer"
     id="layer1"
     transform="translate(0,-244.08332)">
    <g
       id="g78"
       transform="matrix(0.63846706,0,0,0.63846706,-95.70301,209.78294)">
	<polygon
   style="fill:#071224"
   class="st1"
   points="172.6,123.2 161.8,123.2 161.8,104.7 165.7,104.7 165.7,119.7 172.6,119.7 "
   id="polygon46" />

	<rect
   style="fill:#071224"
   x="174.60001"
   y="104.7"
   class="st1"
   width="3.9000001"
   height="18.4"
   id="rect48" />

	<polygon
   style="fill:#071224"
   class="st1"
   points="184.4,104.7 187.7,116.8 191,104.7 195.1,104.7 189.5,123.2 186,123.2 180.3,104.7 "
   id="polygon50" />

	<path
   style="fill:#071224"
   inkscape:connector-curvature="0"
   class="st1"
   d="m 200.9,108.2 v 5.2 h 3.3 c 1.5,0 2.3,-1.4 2.3,-2.6 0,-1.2 -0.7,-2.6 -2.2,-2.6 z m 9.7,15 h -4.7 l -4.1,-6.4 h -0.9 v 6.4 H 197 v -18.4 h 7.6 c 4.2,0 6.1,3 6.1,6.1 0,2.6 -1.4,5.2 -4.6,5.9 z"
   id="path52" />

	<polygon
   style="fill:#071224"
   class="st1"
   points="217.5,112.4 224.3,112.4 224.3,115.8 217.5,115.8 217.5,119.7 225.5,119.7 225.5,123.2 213.6,123.2 213.6,104.7 225.3,104.7 225.3,108.2 217.5,108.2 "
   id="polygon54" />

	<path
   style="fill:#ae0000"
   inkscape:connector-curvature="0"
   class="st0"
   d="m 228.3,110.1 c 0,2.9 2.4,5.3 5.3,5.3 h 7.8 c 1.4,0 2.1,1.2 2.1,2.5 0,1.2 -0.6,2.4 -2.1,2.4 h -13.1 v 2.9 h 13.1 c 2.9,0 5.3,-2.4 5.3,-5.3 0,-3 -2.4,-5.3 -5.3,-5.3 h -7.8 c -1.4,0 -2.1,-1.2 -2.1,-2.4 0,-1.2 0.6,-2.5 2.1,-2.5 h 13.1 v -2.9 h -13.1 c -2.9,-0.1 -5.3,2.3 -5.3,5.3"
   id="path56" />

	<path
   style="fill:#ae0000"
   inkscape:connector-curvature="0"
   class="st0"
   d="m 260.4,104.7 h -13.1 v 18.4 h 3.2 v -6.9 h 9.9 c 2.9,0 5.3,-2.4 5.3,-5.3 v -0.8 c 0.1,-3 -2.3,-5.4 -5.3,-5.4 m 0,8.7 h -9.9 v -5.8 h 9.9 c 1.5,0 2.1,1.2 2.1,2.5 v 0.8 c 0.1,1.2 -0.6,2.5 -2.1,2.5"
   id="path58" />

	<path
   style="fill:#ae0000"
   inkscape:connector-curvature="0"
   class="st0"
   d="m 200.5,100.2 c 0,0.6 -0.5,1.2 -1.2,1.2 -0.6,0 -1.2,-0.5 -1.2,-1.2 v -9 h -1.4 c -0.5,0 -1,-0.4 -1,-1 0,-0.5 0.5,-1 1,-1 h 1.4 v -1.3 c 0,-3.2 1.4,-5.3 4.6,-5.3 h 0.3 c 0.6,0 1.1,0.5 1.1,1.1 0,0.6 -0.5,1.1 -1.1,1.1 h -0.3 c -1.9,0 -2.3,1.5 -2.3,3.1 v 1.3 h 2.1 c 0.5,0 1,0.4 1,1 0,0.5 -0.5,1 -1,1 h -2.1 v 9 z"
   id="path60" />

	<path
   style="fill:#ae0000"
   inkscape:connector-curvature="0"
   class="st0"
   d="m 210,91.2 c -2.2,0 -3.9,1.5 -3.9,3.9 0,2.4 1.7,4 3.9,4 2.1,0 4,-1.5 4,-4 0,-2.5 -2.1,-3.9 -4,-3.9 m 4,8.2 c -0.8,1.4 -2.5,2.1 -4.2,2.1 -3.3,0 -6.1,-2.5 -6.1,-6.3 0,-3.8 2.8,-6.2 6.1,-6.2 1.7,0 3.4,0.7 4.2,2.1 v -0.7 c 0,-0.6 0.5,-1.2 1.2,-1.2 0.7,0 1.2,0.5 1.2,1.2 v 9.9 c 0,0.6 -0.5,1.2 -1.2,1.2 -0.6,0 -1.2,-0.5 -1.2,-1.2 z"
   id="path62" />

	<path
   style="fill:#ae0000"
   inkscape:connector-curvature="0"
   class="st0"
   d="m 225.4,99.2 c 2.2,0 3.9,-1.6 3.9,-4 0,-2.4 -1.7,-3.9 -3.9,-3.9 -1.9,0 -4,1.4 -4,3.9 0,2.5 1.9,4 4,4 m -4,-8.2 c 0.8,-1.4 2.5,-2.1 4.2,-2.1 3.3,0 6.1,2.4 6.1,6.2 0,3.8 -2.8,6.3 -6.1,6.3 -1.7,0 -3.4,-0.7 -4.2,-2.1 v 0.8 c 0,0.6 -0.5,1.2 -1.2,1.2 -0.6,0 -1.2,-0.5 -1.2,-1.2 V 83.7 c 0,-0.6 0.5,-1.2 1.2,-1.2 0.7,0 1.2,0.5 1.2,1.2 z"
   id="path64" />

	<path
   style="fill:#ae0000"
   inkscape:connector-curvature="0"
   class="st0"
   d="m 236,100.2 c 0,0.6 -0.5,1.2 -1.2,1.2 -0.6,0 -1.2,-0.5 -1.2,-1.2 V 83.7 c 0,-0.6 0.5,-1.2 1.2,-1.2 0.7,0 1.2,0.5 1.2,1.2 z"
   id="path66" />

	<path
   style="fill:#ae0000"
   inkscape:connector-curvature="0"
   class="st0"
   d="m 244.3,91.2 c -2.2,0 -3.9,1.5 -3.9,3.9 0,2.4 1.7,4 3.9,4 2.1,0 4,-1.5 4,-4 0,-2.5 -2.1,-3.9 -4,-3.9 m 4,8.2 c -0.8,1.4 -2.5,2.1 -4.2,2.1 -3.3,0 -6.1,-2.5 -6.1,-6.3 0,-3.8 2.8,-6.2 6.1,-6.2 1.7,0 3.4,0.7 4.2,2.1 v -0.7 c 0,-0.6 0.5,-1.2 1.2,-1.2 0.7,0 1.2,0.5 1.2,1.2 v 9.9 c 0,0.6 -0.5,1.2 -1.2,1.2 -0.6,0 -1.2,-0.5 -1.2,-1.2 z"
   id="path68" />

	<path
   style="fill:#ae0000"
   inkscape:connector-curvature="0"
   class="st0"
   d="m 259.7,99.2 c 2.2,0 3.9,-1.6 3.9,-4 0,-2.4 -1.7,-3.9 -3.9,-3.9 -1.9,0 -4,1.4 -4,3.9 0,2.5 1.9,4 4,4 m -4,-8.2 c 0.8,-1.4 2.5,-2.1 4.2,-2.1 3.3,0 6.1,2.4 6.1,6.2 0,3.8 -2.8,6.3 -6.1,6.3 -1.7,0 -3.4,-0.7 -4.2,-2.1 v 0.8 c 0,0.6 -0.5,1.2 -1.2,1.2 -0.6,0 -1.2,-0.5 -1.2,-1.2 V 83.7 c 0,-0.6 0.5,-1.2 1.2,-1.2 0.7,0 1.2,0.5 1.2,1.2 z"
   id="path70" />

	<polygon
   style="fill:#071224"
   class="st1"
   points="193.1,73.6 177.4,64.5 161.8,73.6 177.4,82.7 "
   id="polygon72" />

	<polygon
   style="fill:#071224"
   class="st1"
   points="176.8,83.9 161.8,75.2 161.8,92.8 176.8,101.5 "
   id="polygon74" />

	<polygon
   style="fill:#071224"
   class="st1"
   points="178.1,83.9 193.1,75.2 193.1,92.8 178.1,101.5 "
   id="polygon76" />

</g>
    <text
       xml:space="preserve"
       style="font-style:normal;font-weight:normal;font-size:10.29558849px;line-height:1.25;font-family:sans-serif;letter-spacing:0px;word-spacing:0px;fill:#071224;fill-opacity:1;stroke:none;stroke-width:0.25738972"
       x="84.826385"
       y="271.98587"
       id="text8417"><tspan
         sodipodi:role="line"
         x="84.826385"
         y="271.98587"
         style="font-style:normal;font-variant:normal;font-weight:bold;font-stretch:normal;font-family:'Open Sans';-inkscape-font-specification:'Open Sans Bold';text-align:start;text-anchor:start;fill:#071224;fill-opacity:1;stroke-width:0.25738972"
         id="tspan8419">Registro </tspan><tspan
         sodipodi:role="line"
         x="84.826385"
         y="284.86856"
         style="font-style:normal;font-variant:normal;font-weight:bold;font-stretch:normal;font-family:'Open Sans';-inkscape-font-specification:'Open Sans Bold';text-align:start;text-anchor:start;fill:#071224;fill-opacity:1;stroke-width:0.25738972"
         id="tspan8425">de projetos</tspan></text>
    <path
       style="fill:#000000;fill-opacity:0;stroke:#071224;stroke-width:0.88134468;stroke-linecap:butt;stroke-linejoin:miter;stroke-miterlimit:4;stroke-dasharray:none;stroke-opacity:1"
       d="m 78.291611,261.04805 v 29.40946"
       id="path8427"
       inkscape:connector-curvature="0" />
    <text
       id="text9238"
       y="278.03265"
       x="142.72635"
       style="font-style:normal;font-weight:normal;font-size:4.54386091px;line-height:1.25;font-family:sans-serif;letter-spacing:0px;word-spacing:0px;fill:#ae0000;fill-opacity:1;stroke:none;stroke-width:0.11359653"
       xml:space="preserve"><tspan
         id="tspan9236"
         style="font-style:normal;font-variant:normal;font-weight:300;font-stretch:normal;font-family:'Open Sans';-inkscape-font-specification:'Open Sans Light';text-align:start;text-anchor:start;fill:#ae0000;fill-opacity:1;stroke-width:0.11359653"
         y="278.03265"
         x="142.72635"
         sodipodi:role="line">BETA</tspan></text>
  </g>
  <style
     id="style10"
     type="text/css">
	.st0{fill:#AE0000;}
	.st1{fill:#071224;}
	.st2{fill-rule:evenodd;clip-rule:evenodd;}
	.st3{stroke:#13007C;stroke-width:0.216;stroke-miterlimit:22.9256;}
	.st4{fill-rule:evenodd;clip-rule:evenodd;fill:#008837;}
	.st5{fill-rule:evenodd;clip-rule:evenodd;fill:#FF0000;}
	.st6{fill-rule:evenodd;clip-rule:evenodd;fill:#CCCCCC;}
	.st7{fill-rule:evenodd;clip-rule:evenodd;fill:#FFFFFF;}
	.st8{fill-rule:evenodd;clip-rule:evenodd;fill:#FFD900;}
	.st9{fill:none;stroke:#13007C;stroke-width:0.216;stroke-miterlimit:22.9256;}
	.st10{fill:#333333;}
	.st11{fill-rule:evenodd;clip-rule:evenodd;fill:#FFF232;}
	.st12{fill-rule:evenodd;clip-rule:evenodd;fill:#01A0C5;}
	.st13{fill-rule:evenodd;clip-rule:evenodd;fill:#0D2580;}
</style>
</svg>
